<?xml version="1.0" standalone="no"?>
<!DOCTYPE svg PUBLIC "-//W3C//DTD SVG 20010904//EN"
 "http://www.w3.org/TR/2001/REC-SVG-20010904/DTD/svg10.dtd">
<svg version="1.0" xmlns="http://www.w3.org/2000/svg"
 width="200.000000pt" height="200.000000pt" viewBox="0 0 200.000000 200.000000"
 preserveAspectRatio="xMidYMid meet">
<metadata>
Created by potrace 1.11, written by Peter Selinger 2001-2013
</metadata>
<g transform="translate(0.000000,200.000000) scale(0.100000,-0.100000)"
fill="#000000" stroke="none">
<path d="M796 1895 c-255 -159 -407 -322 -462 -492 -22 -67 -27 -225 -10 -288
39 -142 96 -230 194 -296 82 -55 95 -83 94 -204 0 -49 -1 -94 -2 -100 -6 -27
3 -53 30 -85 l29 -35 -4 37 c-3 21 4 75 15 120 31 126 36 217 15 259 -10 19
-27 42 -39 52 -61 52 -89 83 -107 118 -30 60 -51 166 -51 259 0 207 105 350
306 421 44 16 88 29 97 29 15 0 15 4 -3 38 -16 30 -19 50 -15 112 3 41 8 83
12 93 11 27 -6 21 -99 -38z"/>
<path d="M840 1654 c-81 -21 -153 -61 -208 -114 -56 -53 -85 -109 -105 -195
-27 -119 -4 -303 34 -279 4 2 3 21 -2 41 -16 71 -12 204 9 271 42 132 152 225
305 256 33 7 63 18 65 24 5 16 -29 14 -98 -4z"/>
<path d="M875 1589 c-79 -18 -143 -65 -198 -146 -112 -166 -87 -372 57 -463
53 -33 96 -89 96 -124 0 -21 6 -20 32 4 12 11 59 38 105 61 140 67 332 106
556 113 82 2 151 7 154 10 10 9 -212 216 -232 216 -7 0 -43 23 -81 51 -112 83
-164 99 -164 50 0 -29 -31 -60 -67 -67 -32 -6 -32 -6 -24 24 13 45 39 79 70
91 24 11 34 8 87 -22 32 -18 79 -47 104 -63 45 -30 100 -57 100 -50 0 3 -19
15 -42 29 -24 13 -112 76 -197 140 -94 71 -173 123 -202 132 -55 19 -112 24
-154 14z"/>
<path d="M635 1479 c-21 -33 -24 -43 -13 -50 20 -13 24 -12 51 30 19 28 23 41
14 50 -17 17 -22 14 -52 -30z"/>
<path d="M1335 1004 c-165 -27 -255 -52 -343 -97 -115 -57 -112 -54 -110 -117
2 -56 -12 -95 -41 -117 -25 -18 -21 -102 7 -137 24 -31 29 -65 11 -83 -7 -7
-9 -28 -5 -55 11 -85 10 -107 -9 -142 -16 -30 -17 -38 -6 -59 7 -13 11 -32 9
-43 -2 -15 9 -23 62 -41 58 -19 87 -25 180 -39 114 -17 242 -26 251 -17 11 11
-23 112 -52 155 -11 14 -19 35 -19 46 0 17 32 114 59 177 5 11 14 33 20 48 10
27 13 27 71 24 34 -2 67 1 74 7 13 10 28 93 29 158 1 17 8 30 18 33 32 10 28
34 -16 111 -24 42 -41 83 -38 90 3 7 -3 36 -12 64 -19 57 -13 55 -140 34z"/>
</g>
</svg>
